<?xml version="1.0" encoding="utf-8"?>
<!-- Generator: Adobe Illustrator 17.0.0, SVG Export Plug-In . SVG Version: 6.00 Build 0)  -->
<!DOCTYPE svg PUBLIC "-//W3C//DTD SVG 1.1//EN" "http://www.w3.org/Graphics/SVG/1.1/DTD/svg11.dtd">
<svg version="1.1" id="Capa_1" xmlns="http://www.w3.org/2000/svg" xmlns:xlink="http://www.w3.org/1999/xlink" x="0px" y="0px"
	 width="64px" height="64px" viewBox="0 0 64 64" enable-background="new 0 0 64 64" xml:space="preserve">
<path d="M45.81,14.219c0-1.114-1.112-2.017-2.483-2.017H39.61h-0.108c-1.085-2.614-3.649-4.456-6.655-4.456
	c-3.005,0-5.567,1.844-6.656,4.456h-0.11h-3.715c-1.371,0-2.483,0.904-2.483,2.017c0,1.115,0,2.018,0,2.018H45.81V14.219z
	 M32.847,14.375c-1.114,0-2.018-0.903-2.018-2.018c0-1.115,0.904-2.018,2.018-2.018c1.115,0,2.018,0.903,2.018,2.018
	C34.865,13.471,33.962,14.375,32.847,14.375z" fill="#FFFFFF"/>
<path d="M49.494,50.331V15.407h-1.631v2.871H17.902v-2.697c-1.916,0.519-3.332,2.252-3.332,4.332v34.923h30.417
	C47.477,54.837,49.494,52.819,49.494,50.331z" fill="#FFFFFF"/>
</svg>
