<?xml version="1.0" encoding="utf-8"?>
<!-- Generator: Adobe Illustrator 17.0.0, SVG Export Plug-In . SVG Version: 6.00 Build 0)  -->
<!DOCTYPE svg PUBLIC "-//W3C//DTD SVG 1.1//EN" "http://www.w3.org/Graphics/SVG/1.1/DTD/svg11.dtd">
<svg version="1.1" id="Capa_1" xmlns="http://www.w3.org/2000/svg" xmlns:xlink="http://www.w3.org/1999/xlink" x="0px" y="0px"
	 width="64px" height="64px" viewBox="0 0 64 64" enable-background="new 0 0 64 64" xml:space="preserve" stroke="#FFFFFF">
<g>
	<path d="M32.962,4.46c-9.753,0-17.688,7.934-17.688,17.687c0,4.73,1.856,9.179,5.225,12.525c0.106,0.108,0.266,0.476,0.273,0.677
		c0.057,1.468,0.466,4.837,2.841,7.472c-0.127,0.182-0.241,0.376-0.329,0.59c-0.399,0.979-0.302,2.069,0.202,2.919
		c-0.372,0.971-0.262,2.043,0.22,2.858c-0.001,0.003-0.003,0.007-0.004,0.01c-0.58,1.429-0.106,3.093,1.093,3.865
		c0.064,0.042,0.976,0.628,2.535,1.186c-0.017,0.219-0.121,2.186,1.306,3.746c1.018,1.113,2.491,1.691,4.381,1.718
		c0.043,0,0.085,0.001,0.128,0.001c1.816-0.001,3.23-0.545,4.204-1.621c1.386-1.529,1.269-3.484,1.234-3.844
		c1.47-0.526,2.376-1.077,2.533-1.18c1.213-0.782,1.685-2.449,1.099-3.873c-0.002-0.004-0.003-0.008-0.005-0.012
		c0.487-0.822,0.594-1.885,0.226-2.844c0.499-0.843,0.602-1.943,0.2-2.935c-0.081-0.195-0.185-0.373-0.298-0.541
		c2.351-2.639,2.767-6.031,2.827-7.512c0.008-0.198,0.175-0.577,0.281-0.685c3.354-3.355,5.2-7.802,5.2-12.521
		C50.647,12.394,42.714,4.46,32.962,4.46z M35.126,56.078c-0.396,0.435-1.114,0.651-2.067,0.635
		c-1.017-0.014-1.754-0.258-2.192-0.725c-0.277-0.295-0.412-0.656-0.479-0.953c0.482,0.079,0.99,0.141,1.523,0.181
		c0.516,0.04,0.926,0.048,1.009,0.049c0.014,0,0.027,0,0.041,0c0.014,0,0.027,0,0.041,0c0.084-0.001,0.494-0.01,1.009-0.049
		c0.55-0.042,1.068-0.108,1.563-0.189C35.527,55.347,35.414,55.76,35.126,56.078z M39.589,47.662
		c-0.39,0.226-0.682,0.648-0.753,1.092c-0.122,0.755,0.327,1.262,0.603,1.578c0.041,0.1-0.016,0.232,0.049,0.217
		c-0.021,0.014-2.235,1.413-5.706,1.675c-0.401,0.031-0.726,0.039-0.822,0.04c-0.097-0.002-0.421-0.01-0.822-0.04
		c-3.426-0.259-5.624-1.625-5.647-1.625c0,0,0,0-0.001,0c-0.024-0.039-0.049-0.17,0.046-0.333c0.218-0.245,0.672-0.755,0.551-1.512
		c-0.071-0.445-0.363-0.867-0.753-1.093L26.3,47.66c-0.024-0.038-0.05-0.167,0.022-0.313c0.216-0.271,0.618-0.774,0.484-1.499
		c-0.055-0.295-0.204-0.576-0.415-0.794c1.167,0.546,3.356,1.345,6.24,1.388h0.677c1.194-0.018,2.262-0.17,3.193-0.376
		c0.17-0.035,0.333-0.074,0.495-0.114c0.31-0.079,0.599-0.162,0.869-0.249c0.19-0.061,0.382-0.122,0.562-0.191
		c0.426-0.155,0.792-0.31,1.088-0.448c-0.206,0.217-0.352,0.493-0.405,0.784c-0.134,0.72,0.26,1.215,0.516,1.548
		c0.04,0.095,0.02,0.216,0.048,0.216h0.001L39.589,47.662z M43.326,32.547c-0.644,0.643-1.12,1.747-1.158,2.685
		c-0.098,2.462-0.992,6.266-5.324,7.644c-0.053,0.016-0.101,0.032-0.155,0.048c-1.003,0.3-2.182,0.475-3.574,0.475l-0.14,0
		c-7.739-0.064-9.089-5.142-9.204-8.165c-0.037-0.957-0.501-2.037-1.156-2.688c-2.799-2.78-4.34-6.473-4.34-10.398
		c0-8.098,6.589-14.687,14.688-14.687c8.098,0,14.686,6.588,14.686,14.687C47.647,26.065,46.112,29.758,43.326,32.547z" stroke="#FFFFFF"/>
	<path d="M39.481,26.022c-6.43,5.259-12.773,0.216-13.04,0c-0.161-0.131-0.384-0.147-0.564-0.047
		c-0.179,0.102-0.277,0.303-0.248,0.507l2.042,13.867c0.041,0.274,0.29,0.466,0.568,0.422c0.272-0.04,0.462-0.294,0.422-0.567
		L26.785,27.46c2.064,1.254,7.105,3.549,12.285,0.108l-2.381,12.614c-0.052,0.271,0.127,0.533,0.398,0.584
		c0.031,0.006,0.062,0.009,0.094,0.009c0.235,0,0.445-0.168,0.49-0.407l2.617-13.867c0.039-0.207-0.056-0.416-0.236-0.523
		C39.873,25.872,39.645,25.889,39.481,26.022z" stroke="#FFFFFF"/>
</g>
</svg>
